# xmcd CD database file
#
# Track frame offsets:
#	150
#	25288
#	47369
#	67230
#	84261
#	105124
#	125844
#	144391
#	170702
#	187378
#	203878
#	223244
#
# Disc length: 3316 seconds
#
# Revision: 0
# Processed by: cddbd v1.5.1PL0 Copyright (c) Steve Scherf et al.
# Submitted via: CDex 1.51
#
DISCID=b50cf20c
DTITLE=V.A, - Eternal Love〜for Marriage〜(Disc1)
DYEAR=2004
DGENRE=JPop
TTITLE0=永遠に／ゴスペラーズ
TTITLE1=明日への扉／I WiSH
TTITLE2=魔法の言葉〜Would you marry me?〜／Do As Infinity
TTITLE3=あ〜よかった／花*花
TTITLE4=バンザイ〜好きでよかった〜／ウルフルズ
TTITLE5=幸せな結末／大滝詠一
TTITLE6=世界中の誰よりきっと／中山美穂&WANDS
TTITLE7=ビューティフル・デイズ／川村結花
TTITLE8=Sofa／Le Couple
TTITLE9=赤いスイートピー／松田聖子
TTITLE10=いい日旅立ち／山口百恵
TTITLE11=雪の華／中島美嘉
EXTD=YEAR: 2004
EXTT0=
EXTT1=
EXTT2=
EXTT3=
EXTT4=
EXTT5=
EXTT6=
EXTT7=
EXTT8=
EXTT9=
EXTT10=
EXTT11=
PLAYORDER=
